<svg xmlns="http://www.w3.org/2000/svg" width="1280" height="720" viewBox="0 0 1280 720" role="img" aria-labelledby="title desc">
  <title id="title">OIDC Settings Gate</title>
  <desc id="desc">Illustration of a secure OpenID Connect settings gate for degoog.</desc>
  <defs>
    <linearGradient id="bg" x1="0" y1="0" x2="1" y2="1">
      <stop offset="0%" stop-color="#0b1220"/>
      <stop offset="100%" stop-color="#15243d"/>
    </linearGradient>
    <linearGradient id="card" x1="0" y1="0" x2="1" y2="1">
      <stop offset="0%" stop-color="#ffffff"/>
      <stop offset="100%" stop-color="#eef4ff"/>
    </linearGradient>
  </defs>
  <rect width="1280" height="720" fill="url(#bg)"/>
  <circle cx="186" cy="128" r="140" fill="#1a73e8" opacity="0.18"/>
  <circle cx="1128" cy="602" r="196" fill="#34a853" opacity="0.14"/>
  <rect x="160" y="136" width="960" height="448" rx="32" fill="url(#card)"/>
  <rect x="208" y="196" width="272" height="328" rx="24" fill="#0f172a"/>
  <text x="248" y="252" fill="#f8fafc" font-family="Arial, sans-serif" font-size="34" font-weight="700">degoog</text>
  <text x="248" y="296" fill="#93c5fd" font-family="Arial, sans-serif" font-size="22">/admin via OIDC</text>
  <circle cx="344" cy="382" r="68" fill="#1a73e8"/>
  <path d="M344 342c-18 0-32 14-32 32v18h64v-18c0-18-14-32-32-32zm-48 50h96v54h-96z" fill="#ffffff"/>
  <text x="248" y="486" fill="#cbd5e1" font-family="Arial, sans-serif" font-size="20">PKCE</text>
  <text x="322" y="486" fill="#cbd5e1" font-family="Arial, sans-serif" font-size="20">Nonce</text>
  <text x="404" y="486" fill="#cbd5e1" font-family="Arial, sans-serif" font-size="20">JWKS</text>
  <rect x="544" y="212" width="528" height="92" rx="22" fill="#eef2ff"/>
  <text x="586" y="268" fill="#1e293b" font-family="Arial, sans-serif" font-size="34" font-weight="700">OpenID Connect Settings Gate</text>
  <text x="586" y="338" fill="#334155" font-family="Arial, sans-serif" font-size="24">Issuer discovery, signed ID token verification, and explicit admin allow rules.</text>
  <rect x="548" y="392" width="520" height="124" rx="24" fill="#f8fafc" stroke="#dbe5f4" stroke-width="3"/>
  <path d="M612 454h132" stroke="#1a73e8" stroke-width="10" stroke-linecap="round"/>
  <path d="M788 454h216" stroke="#34a853" stroke-width="10" stroke-linecap="round"/>
  <circle cx="772" cy="454" r="26" fill="#1a73e8"/>
  <circle cx="1016" cy="454" r="26" fill="#34a853"/>
  <text x="604" y="500" fill="#0f172a" font-family="Arial, sans-serif" font-size="22">degoog admin</text>
  <text x="830" y="500" fill="#0f172a" font-family="Arial, sans-serif" font-size="22">OIDC provider</text>
  <text x="560" y="562" fill="#475569" font-family="Arial, sans-serif" font-size="18">Supports Authentik, Authelia, and other standards-compliant providers.</text>
</svg>
