<svg xmlns="http://www.w3.org/2000/svg" viewBox="0 0 24 24" aria-hidden="true">
  <rect width="24" height="24" rx="5" fill="#7EBC6F"/>
  <path fill="#CEEEAB" d="M4 6.5c1.8 1.2 3.8.8 5.5-.8 1.6-1.5 3.8-1.2 5.2.2 1.5 1.5 2.8 3.8 2.5 5.8-.3 2-2 3.5-3.8 3.2-1.5-.2-2.8-1.2-4.2-.8-1.5.5-2.8 1.8-3.5 3.2-.8 1.6-.5 3.5.3 4.8.8 1.2 2 2 3.5 1.8 1.2-.2 2.2-1 3.2-2 1.2-1.2 2-2.8 2.2-4.5.2-1.5-.2-3-1.2-4.2-.8-1-2-1.8-3.2-2-1-.2-2 .2-2.8.8-.5.4-1 .9-1.5 1.2z"/>
  <path fill="#A6DD8B" d="M10 5.5 8.5 9h3l2.5-1.2 4 1.2-.5 2.2H15l1.8 3-1.8.8-3-1.2-1.8 1.2-.8-3 2.2-1.2 1.2 2.2 1.2-1.2-.8-2.2 1.2-.5 1.8 1.2 1.2-.5 1.5-2.2-.5-1.2-1.8.8-1.2 1.8.8 1.2-1.2 1.2.8 1.2-2 1.2-.5 2 1.2 1-.1.8 1.5-.5 1-.8 1.5.5 1 .5 1.5-.5.8-.8 1.2.5 1 .5 1.2-.5.8-.8 1 .5 1.2-.5.8-.8 1 .5 1.2z"/>
  <circle cx="16.75" cy="16.75" r="4.25" fill="#2D3335"/>
  <circle cx="16.75" cy="16.75" r="3" fill="#87D531"/>
  <path fill="#2D3335" d="m19.1 19.1 3.4 3.4-1.1 1.1-3.4-3.4z"/>
</svg>
